# xmcd
#
# Track frame offsets:
#	150
#	21283
#	39560
#	60953
#	84538
#	109198
#	130078
#	169215
#	191895
#	217935
#	239130
#	268518
#	288138
#	312140
#	330793
#
# Disc length: 4492 seconds
#
# Revision: 1
# Processed by: cddbd v1.4PL0 Copyright (c) Steve Scherf et al.
# Submitted via: EasyCDDAExtractor 5.0.7
#
DISCID=cd118a0f
DTITLE=Various Artist - Dem Da Vu Thu Nhat
DYEAR=1900
DGENRE=
TTITLE0=Kim Anh - Nhu giot sau roi
TTITLE1=Khanh Ly - Paris co gi la khong em
TTITLE2=Thanh Thuy - Anh oi dung den nua
TTITLE3=Khanh Ly - Hoa bien
TTITLE4=Hai Ly - Biet ly
TTITLE5=Le Thu - Huyen thoai nguoi con gai
TTITLE6=Khanh Ly - Ao anh
TTITLE7=Hai Ly - Doan nguoi lu thu
TTITLE8=Thanh Thuy - Le the cua loai hoa trang
TTITLE9=Le Thu - Con thuyen khong ben
TTITLE10=Hai Ly - Mua dong cua anh
TTITLE11=Thanh Thuy - Dang do
TTITLE12=Khanh Ly - Banh xe lang tu
TTITLE13=Le Thu - Dung lua doi nhau
TTITLE14=Kim Anh - Ngay xua hoang thi
EXTD=
EXTT0=
EXTT1=
EXTT2=
EXTT3=
EXTT4=
EXTT5=
EXTT6=
EXTT7=
EXTT8=
EXTT9=
EXTT10=
EXTT11=
EXTT12=
EXTT13=
EXTT14=
PLAYORDER=
